<?xml version="1.0" standalone="no"?>
<!DOCTYPE svg PUBLIC "-//W3C//DTD SVG 20010904//EN"
 "http://www.w3.org/TR/2001/REC-SVG-20010904/DTD/svg10.dtd">
<svg version="1.0" xmlns="http://www.w3.org/2000/svg"
 width="2657.000000pt" height="2657.000000pt" viewBox="0 0 2657.000000 2657.000000"
 preserveAspectRatio="xMidYMid meet">

<g transform="translate(0.000000,2657.000000) scale(0.100000,-0.100000)"
fill="#000000" stroke="none">
<path d="M6320 21236 c-117 -33 -221 -119 -273 -225 l-32 -66 -3 -418 -3 -417
-594 -701 -595 -701 0 -268 c0 -309 0 -307 100 -368 124 -74 315 -112 565
-112 208 0 370 27 507 85 17 7 18 -153 20 -3166 l3 -3174 27 -58 c53 -112 171
-209 289 -236 29 -7 2336 -11 6960 -11 6902 0 6917 0 6982 20 121 37 221 130
268 247 l24 58 3 3154 2 3153 23 -6 c182 -53 275 -66 480 -66 314 0 556 63
647 167 l30 34 0 277 -1 277 -589 694 -589 695 -3 410 c-3 400 -4 412 -26 466
-46 113 -129 196 -242 242 l-55 23 -6940 2 c-5537 1 -6949 -1 -6985 -11z
m2280 -531 c0 -2 -254 -454 -565 -1003 l-565 -999 0 -258 c0 -286 3 -302 66
-350 133 -102 448 -160 730 -136 232 20 408 78 489 161 l40 41 3 281 2 282
412 970 c226 534 416 981 421 994 l10 22 524 0 c287 0 523 -2 523 -5 0 -3
-126 -451 -280 -996 l-280 -990 0 -280 0 -279 35 -38 c93 -104 331 -166 630
-165 302 0 560 74 632 182 23 33 23 39 23 312 l0 279 135 957 c75 527 138 973
141 991 l6 32 524 0 524 0 0 -1268 0 -1267 24 -36 c45 -67 196 -130 391 -164
138 -25 422 -25 560 0 208 36 347 97 397 173 17 25 18 100 18 1295 l0 1267
485 0 c411 0 485 -2 485 -14 0 -8 61 -446 136 -973 l136 -958 -2 -283 c-1
-269 0 -286 20 -327 106 -220 835 -274 1132 -84 95 61 93 54 93 374 l0 280
-278 975 c-153 536 -280 983 -283 993 -5 16 22 17 479 17 l484 0 421 -994 422
-995 0 -266 c0 -298 2 -311 66 -363 234 -193 948 -178 1134 24 l40 44 0 276 0
276 -552 977 c-303 537 -558 986 -566 999 l-14 22 485 0 486 0 705 -997 705
-998 1 -268 c0 -294 -1 -301 -61 -351 -43 -36 -100 -65 -184 -92 l-70 -22 -3
-2921 -2 -2921 -6785 0 -6785 0 0 2920 0 2919 -42 11 c-144 37 -224 76 -283
139 l-30 32 -3 274 -3 273 707 1001 708 1001 523 0 c288 0 523 -2 523 -5z"/>
<path d="M8336 17185 c-52 -18 -94 -61 -107 -108 -15 -56 19 -123 80 -154 42
-22 54 -23 276 -23 l232 0 6 49 c12 105 78 200 161 237 46 20 -590 20 -648 -1z"/>
<path d="M17345 15307 c-10 -106 -114 -1581 -111 -1584 1 -2 112 132 246 297
134 166 246 297 250 293 3 -4 94 -187 201 -407 107 -219 200 -401 208 -404 22
-8 201 85 201 105 0 9 -88 197 -195 416 -108 220 -194 402 -192 404 3 2 174 8
381 12 208 5 379 11 382 13 2 3 -304 210 -680 461 l-685 456 -6 -62z"/>
<path d="M9735 14012 c-252 -121 -252 -474 0 -593 140 -67 319 -20 404 105
115 169 55 398 -127 488 -35 17 -68 24 -132 26 -77 3 -91 0 -145 -26z m236
-110 c76 -39 114 -103 114 -186 -1 -72 -28 -133 -77 -169 -148 -110 -348 -13
-348 168 0 165 164 264 311 187z"/>
<path d="M11255 14012 c-38 -18 -78 -48 -107 -81 -146 -162 -92 -418 107 -512
140 -67 319 -20 404 105 115 169 55 398 -127 488 -35 17 -68 24 -132 26 -77 3
-91 0 -145 -26z m236 -110 c76 -39 114 -103 114 -186 -1 -72 -28 -133 -77
-169 -148 -110 -348 -13 -348 168 0 165 164 264 311 187z"/>
<path d="M7917 10538 c-51 -93 -107 -206 -107 -218 0 -6 67 -10 189 -10 l190
0 65 136 c36 75 66 141 66 145 0 5 -83 9 -184 9 l-184 0 -35 -62z"/>
<path d="M8424 10465 c-35 -75 -64 -140 -64 -145 0 -6 116 -10 308 -10 l308 0
52 128 c28 70 54 135 58 145 6 16 -12 17 -296 17 l-301 0 -65 -135z"/>
<path d="M9222 10465 c-29 -74 -52 -139 -52 -145 0 -6 108 -10 308 -10 l308 0
43 133 c24 72 46 138 48 145 4 9 -60 12 -299 12 l-304 0 -52 -135z"/>
<path d="M10026 10486 c-20 -62 -39 -128 -42 -145 l-7 -31 309 2 309 3 32 120
c17 66 32 130 32 143 l1 22 -299 0 -298 0 -37 -114z"/>
<path d="M10846 10583 c-15 -55 -56 -238 -56 -254 0 -19 9 -19 307 -17 l308 3
22 120 c12 66 22 130 23 143 l0 22 -299 0 c-277 0 -300 -1 -305 -17z"/>
<path d="M11635 10578 c-16 -68 -41 -254 -35 -261 3 -4 143 -6 311 -5 l304 3
12 115 c6 63 12 127 12 143 l1 27 -300 0 -300 0 -5 -22z"/>
<path d="M12427 10593 c-3 -5 -7 -51 -11 -103 -4 -52 -9 -114 -12 -137 l-6
-43 309 0 310 0 7 53 c3 28 6 94 6 145 l0 92 -299 0 c-165 0 -302 -3 -304 -7z"/>
<path d="M13217 10593 c-4 -3 -7 -69 -7 -145 l0 -138 310 0 310 0 0 48 c0 26
-3 91 -7 145 l-6 97 -297 0 c-163 0 -300 -3 -303 -7z"/>
<path d="M14004 10533 c3 -38 9 -103 12 -145 l6 -78 310 0 310 0 -7 63 c-4 34
-12 98 -19 142 l-11 80 -304 3 -303 2 6 -67z"/>
<path d="M14790 10588 c0 -7 9 -71 20 -142 11 -71 20 -130 20 -132 0 -2 140
-4 310 -4 241 0 310 3 310 13 0 6 -13 71 -28 142 l-28 130 -302 3 c-238 2
-302 0 -302 -10z"/>
<path d="M15580 10590 c0 -9 34 -166 55 -257 l5 -23 310 0 c171 0 310 3 310 8
-1 4 -18 68 -39 142 l-38 135 -301 3 c-210 1 -302 -1 -302 -8z"/>
<path d="M16370 10587 c0 -7 17 -72 39 -143 l38 -129 312 -3 c171 -1 311 -1
311 2 0 4 -82 236 -95 269 -7 16 -31 17 -306 17 -241 0 -299 -3 -299 -13z"/>
<path d="M17160 10586 c0 -7 22 -72 49 -142 l48 -129 299 -3 c164 -1 304 0
311 2 8 4 -7 50 -49 145 l-61 141 -299 0 c-247 0 -298 -2 -298 -14z"/>
<path d="M17954 10583 c4 -10 32 -75 64 -145 l57 -128 368 0 c202 0 367 3 367
8 -1 4 -33 68 -73 142 l-72 135 -359 3 c-339 2 -358 1 -352 -15z"/>
<path d="M7655 10030 c-36 -71 -65 -134 -65 -140 0 -7 118 -10 343 -10 l343 0
61 140 61 140 -339 0 -339 0 -65 -130z"/>
<path d="M8539 10025 c-31 -74 -54 -136 -51 -140 3 -3 148 -5 322 -5 l317 0
28 78 c15 42 38 105 51 140 l23 62 -317 0 -317 0 -56 -135z"/>
<path d="M9415 10150 c-10 -17 -85 -243 -85 -257 0 -10 64 -13 318 -13 l319 0
23 78 c12 42 31 105 40 140 l19 62 -314 0 c-205 0 -316 -4 -320 -10z"/>
<path d="M10235 10148 c-15 -43 -65 -236 -65 -250 0 -17 22 -18 320 -18 176 0
320 2 320 3 0 4 46 214 55 255 l5 22 -315 0 c-244 0 -317 -3 -320 -12z"/>
<path d="M11055 10138 c-16 -69 -45 -223 -45 -239 0 -18 13 -19 320 -19 l319
0 6 33 c6 39 35 235 35 242 0 3 -142 5 -315 5 l-315 0 -5 -22z"/>
<path d="M11880 10153 c0 -5 -7 -55 -15 -113 -8 -58 -15 -117 -15 -132 l0 -28
319 0 319 0 6 48 c3 26 8 89 12 140 l6 92 -316 0 c-174 0 -316 -3 -316 -7z"/>
<path d="M12696 10068 c-3 -50 -6 -113 -6 -140 l0 -48 320 0 320 0 0 140 0
140 -314 0 -313 0 -7 -92z"/>
<path d="M13524 10068 c3 -50 6 -113 6 -140 l0 -48 321 0 322 0 -7 113 c-4 61
-9 124 -12 140 l-6 27 -315 0 -316 0 7 -92z"/>
<path d="M14343 10143 c3 -10 8 -54 12 -98 3 -44 8 -99 12 -122 l5 -43 319 0
319 0 -1 28 c0 15 -8 77 -17 137 l-17 110 -318 3 c-300 2 -318 1 -314 -15z"/>
<path d="M15175 10093 c7 -38 18 -101 25 -140 l12 -73 319 0 c296 0 319 1 319
17 0 10 -12 73 -27 140 l-27 123 -317 0 -317 0 13 -67z"/>
<path d="M15990 10151 c0 -5 14 -68 31 -140 l31 -131 317 0 c175 0 320 2 323
5 3 3 -13 66 -35 140 l-41 135 -313 0 c-182 0 -313 -4 -313 -9z"/>
<path d="M16810 10154 c0 -3 19 -66 42 -140 l42 -134 317 0 c175 0 320 3 322
8 2 4 -18 67 -46 140 l-49 132 -314 0 c-173 0 -314 -3 -314 -6z"/>
<path d="M17634 10143 c4 -10 28 -73 54 -140 l47 -123 322 0 c178 0 323 2 323
4 0 2 -27 64 -59 137 l-60 134 -317 3 c-299 2 -316 1 -310 -15z"/>
<path d="M18600 10135 c0 -3 43 -97 95 -208 l95 -202 -460 -3 c-253 -1 -460
-5 -460 -9 0 -3 21 -64 48 -134 l47 -129 633 0 c442 0 632 3 632 11 0 6 -74
161 -164 345 l-164 334 -151 0 c-83 0 -151 -2 -151 -5z"/>
<path d="M7459 9623 c-28 -60 -57 -123 -65 -140 l-14 -33 367 0 368 0 55 132
c30 72 57 135 58 140 2 4 -159 8 -357 8 l-361 0 -51 -107z"/>
<path d="M8382 9600 c-29 -72 -52 -135 -52 -140 0 -6 127 -10 333 -10 l333 0
43 128 c23 70 45 133 48 140 4 9 -65 12 -324 12 l-330 0 -51 -130z"/>
<path d="M9285 9718 c-17 -46 -85 -254 -85 -260 0 -4 150 -8 333 -8 l333 0 33
123 c19 67 36 130 39 140 4 16 -16 17 -322 17 -252 0 -328 -3 -331 -12z"/>
<path d="M10126 9678 c-18 -64 -56 -214 -56 -222 0 -3 150 -6 333 -6 l334 0
26 128 c15 70 27 133 27 140 0 9 -72 12 -324 12 l-325 0 -15 -52z"/>
<path d="M10970 9613 c-12 -65 -24 -128 -27 -140 l-5 -23 335 0 335 0 12 83
c6 45 15 108 19 140 l8 57 -328 0 -327 0 -22 -117z"/>
<path d="M11831 9618 c-6 -62 -14 -125 -17 -140 l-6 -28 335 0 335 0 6 78 c4
42 9 105 12 140 l6 62 -329 0 -330 0 -12 -112z"/>
<path d="M12696 9688 c-3 -24 -7 -87 -9 -140 l-3 -98 333 0 333 0 0 140 0 140
-324 0 -325 0 -5 -42z"/>
<path d="M13550 9613 c0 -65 3 -128 6 -140 l6 -23 330 0 331 0 -7 123 c-4 67
-9 130 -12 140 -5 16 -29 17 -330 17 l-324 0 0 -117z"/>
<path d="M14404 9693 c3 -21 8 -72 11 -113 3 -41 8 -87 11 -102 l6 -28 332 0
332 0 -19 140 -20 140 -329 0 -330 0 6 -37z"/>
<path d="M15271 9623 c10 -60 21 -123 24 -140 l6 -33 335 0 334 0 -5 23 c-15
65 -55 247 -55 251 0 3 -148 6 -328 6 l-329 0 18 -107z"/>
<path d="M16110 9721 c0 -5 14 -68 31 -140 l31 -131 334 0 334 0 -5 23 c-3 12
-21 74 -39 137 l-33 115 -327 3 c-195 1 -326 -1 -326 -7z"/>
<path d="M16964 9713 c3 -10 22 -73 42 -140 l38 -123 334 0 c263 0 333 3 330
13 -3 6 -25 69 -49 139 l-44 128 -328 0 c-308 0 -328 -1 -323 -17z"/>
<path d="M7268 9213 c-22 -49 -51 -112 -64 -141 l-23 -52 587 2 586 3 47 125
c26 69 48 131 48 138 1 9 -119 12 -570 12 l-570 0 -41 -87z"/>
<path d="M8735 9288 c-31 -86 -85 -250 -85 -258 0 -7 119 -10 344 -10 l343 0
38 128 c21 70 40 133 43 140 3 9 -68 12 -337 12 -264 0 -343 -3 -346 -12z"/>
<path d="M9591 9178 c-19 -68 -36 -131 -39 -141 -4 -16 15 -17 343 -15 l348 3
28 120 c15 66 28 128 28 138 1 16 -22 17 -337 17 l-338 0 -33 -122z"/>
<path d="M10506 9274 c-4 -14 -16 -69 -27 -122 -10 -53 -22 -105 -25 -114 -5
-17 16 -18 343 -18 l349 0 18 118 c10 64 20 127 23 140 l5 22 -340 0 -340 0
-6 -26z"/>
<path d="M11395 9288 c-4 -15 -35 -237 -35 -255 0 -10 76 -13 345 -13 322 0
345 1 346 18 0 9 6 72 13 140 l12 122 -338 0 c-262 0 -340 -3 -343 -12z"/>
<path d="M12276 9213 c-4 -49 -9 -112 -13 -140 l-5 -53 345 0 344 0 7 38 c3
20 6 83 6 140 l0 102 -339 0 -339 0 -6 -87z"/>
<path d="M13170 9183 c0 -65 -3 -128 -6 -140 l-6 -23 352 0 353 0 -7 53 c-3
28 -6 91 -6 140 l0 87 -340 0 -340 0 0 -117z"/>
<path d="M14055 9238 c2 -35 7 -98 11 -140 l6 -78 344 0 c321 0 344 1 344 18
0 20 -18 183 -26 230 l-5 32 -340 0 -340 0 6 -62z"/>
<path d="M14943 9253 c4 -27 12 -90 18 -140 l12 -93 347 0 348 0 -13 68 c-7
37 -18 100 -25 140 l-12 72 -340 0 -341 0 6 -47z"/>
<path d="M15849 9163 l26 -138 348 -3 c191 -1 347 1 347 5 0 5 -15 67 -33 138
l-33 130 -340 3 -341 2 26 -137z"/>
<path d="M16710 9294 c0 -4 11 -47 24 -98 14 -50 30 -110 36 -133 l11 -43 345
0 346 0 -7 28 c-3 15 -22 78 -42 140 l-35 112 -339 0 c-186 0 -339 -3 -339 -6z"/>
<path d="M17610 9298 c0 -2 20 -64 44 -138 l44 -135 496 -3 c273 -1 496 1 496
5 0 4 -24 67 -52 140 l-53 133 -487 0 c-269 0 -488 -1 -488 -2z"/>
<path d="M18824 9283 c4 -10 30 -73 58 -140 l51 -123 253 0 253 0 -36 78 c-19
42 -48 105 -64 140 l-28 62 -247 0 c-230 0 -246 -1 -240 -17z"/>
<path d="M7076 8843 c-20 -40 -106 -240 -106 -247 0 -3 160 -5 355 -4 l356 3
49 125 c28 69 50 131 50 138 0 9 -76 12 -345 12 l-344 0 -15 -27z"/>
<path d="M7989 8843 c-48 -126 -89 -237 -89 -244 0 -5 159 -9 354 -9 l354 0
43 128 c23 70 44 133 47 140 3 9 -70 12 -347 12 l-351 0 -11 -27z"/>
<path d="M8906 8853 c-2 -10 -21 -70 -40 -134 -20 -63 -36 -118 -36 -122 0 -4
159 -7 354 -7 l355 0 15 53 c18 63 56 213 56 221 0 3 -157 6 -349 6 -324 0
-350 -1 -355 -17z"/>
<path d="M9842 8737 c-18 -74 -32 -137 -32 -140 0 -4 1359 -7 3020 -7 1661 0
3020 2 3020 4 0 5 -28 157 -41 224 l-10 52 -2963 0 -2962 0 -32 -133z"/>
<path d="M16070 8863 c0 -5 12 -68 26 -140 l27 -133 357 0 358 0 -35 140 -35
140 -349 0 c-192 0 -349 -3 -349 -7z"/>
<path d="M16970 8863 c0 -5 15 -66 33 -138 l33 -130 368 -3 c202 -1 365 1 363
5 -3 5 -23 68 -46 141 l-42 132 -354 0 c-195 0 -355 -3 -355 -7z"/>
<path d="M17881 8863 c0 -5 19 -66 42 -138 l43 -130 366 -3 366 -2 -52 137
-52 138 -357 3 c-196 1 -357 -1 -356 -5z"/>
<path d="M18810 8863 c0 -3 23 -66 52 -140 l52 -133 358 0 358 0 -26 58 c-14
31 -41 94 -61 140 l-35 82 -349 0 c-192 0 -349 -3 -349 -7z"/>
</g>
</svg>
